<svg xmlns="http://www.w3.org/2000/svg" width="1440" height="900" viewBox="0 0 1440 900" role="img" aria-label="Hour AI workflow dashboard">
  <defs>
    <linearGradient id="bg" x1="0" x2="1" y1="0" y2="1">
      <stop offset="0" stop-color="#eff7ff"/>
      <stop offset="0.45" stop-color="#f7fbf7"/>
      <stop offset="1" stop-color="#fff7ed"/>
    </linearGradient>
    <linearGradient id="panel" x1="0" x2="1">
      <stop offset="0" stop-color="#ffffff"/>
      <stop offset="1" stop-color="#f9fafb"/>
    </linearGradient>
    <filter id="shadow" x="-20%" y="-20%" width="140%" height="140%">
      <feDropShadow dx="0" dy="24" stdDeviation="22" flood-color="#1f2937" flood-opacity="0.16"/>
    </filter>
  </defs>
  <rect width="1440" height="900" fill="url(#bg)"/>
  <circle cx="1190" cy="120" r="98" fill="#f97316" opacity="0.14"/>
  <circle cx="210" cy="760" r="120" fill="#14b8a6" opacity="0.14"/>
  <g filter="url(#shadow)">
    <rect x="165" y="122" width="1110" height="656" rx="30" fill="url(#panel)"/>
    <rect x="165" y="122" width="1110" height="72" rx="30" fill="#111827"/>
    <circle cx="218" cy="158" r="10" fill="#ef4444"/>
    <circle cx="250" cy="158" r="10" fill="#f59e0b"/>
    <circle cx="282" cy="158" r="10" fill="#22c55e"/>
    <rect x="330" y="143" width="238" height="30" rx="15" fill="#273244"/>
    <text x="352" y="164" fill="#e5e7eb" font-family="Arial, sans-serif" font-size="15" font-weight="700">hour-ai.com dashboard</text>
    <rect x="195" y="230" width="248" height="498" rx="18" fill="#f8fafc" stroke="#e5e7eb"/>
    <text x="224" y="272" fill="#111827" font-family="Arial, sans-serif" font-size="28" font-weight="800">AI Orders</text>
    <text x="224" y="304" fill="#64748b" font-family="Arial, sans-serif" font-size="16">Beginner to advanced task flow</text>
    <g>
      <rect x="224" y="348" width="178" height="58" rx="14" fill="#ecfeff"/>
      <text x="244" y="372" fill="#0f766e" font-family="Arial, sans-serif" font-size="15" font-weight="700">C-Level</text>
      <text x="244" y="394" fill="#111827" font-family="Arial, sans-serif" font-size="18" font-weight="800">$20-$30</text>
    </g>
    <g>
      <rect x="224" y="430" width="178" height="58" rx="14" fill="#eff6ff"/>
      <text x="244" y="454" fill="#2563eb" font-family="Arial, sans-serif" font-size="15" font-weight="700">B-Level</text>
      <text x="244" y="476" fill="#111827" font-family="Arial, sans-serif" font-size="18" font-weight="800">$60-$70</text>
    </g>
    <g>
      <rect x="224" y="512" width="178" height="58" rx="14" fill="#fff7ed"/>
      <text x="244" y="536" fill="#c2410c" font-family="Arial, sans-serif" font-size="15" font-weight="700">A-Level</text>
      <text x="244" y="558" fill="#111827" font-family="Arial, sans-serif" font-size="18" font-weight="800">$80-$100</text>
    </g>
    <rect x="485" y="230" width="347" height="224" rx="18" fill="#ffffff" stroke="#e5e7eb"/>
    <text x="522" y="274" fill="#111827" font-family="Arial, sans-serif" font-size="24" font-weight="800">7-Day Training Path</text>
    <line x1="545" y1="334" x2="768" y2="334" stroke="#d1d5db" stroke-width="8" stroke-linecap="round"/>
    <circle cx="545" cy="334" r="24" fill="#14b8a6"/>
    <circle cx="656" cy="334" r="24" fill="#3b82f6"/>
    <circle cx="768" cy="334" r="24" fill="#f97316"/>
    <text x="532" y="342" fill="#fff" font-family="Arial, sans-serif" font-size="18" font-weight="800">1</text>
    <text x="643" y="342" fill="#fff" font-family="Arial, sans-serif" font-size="18" font-weight="800">2</text>
    <text x="755" y="342" fill="#fff" font-family="Arial, sans-serif" font-size="18" font-weight="800">3</text>
    <text x="528" y="390" fill="#475569" font-family="Arial, sans-serif" font-size="16">Learn</text>
    <text x="631" y="390" fill="#475569" font-family="Arial, sans-serif" font-size="16">Test</text>
    <text x="739" y="390" fill="#475569" font-family="Arial, sans-serif" font-size="16">Apply</text>
    <rect x="485" y="486" width="347" height="242" rx="18" fill="#ffffff" stroke="#e5e7eb"/>
    <text x="522" y="531" fill="#111827" font-family="Arial, sans-serif" font-size="24" font-weight="800">Editor Profile</text>
    <circle cx="560" cy="594" r="34" fill="#111827"/>
    <text x="546" y="606" fill="#fff" font-family="Arial, sans-serif" font-size="28" font-weight="800">B</text>
    <rect x="620" y="568" width="152" height="16" rx="8" fill="#e5e7eb"/>
    <rect x="620" y="598" width="112" height="16" rx="8" fill="#e5e7eb"/>
    <rect x="522" y="658" width="266" height="18" rx="9" fill="#dbeafe"/>
    <rect x="522" y="658" width="186" height="18" rx="9" fill="#2563eb"/>
    <text x="522" y="705" fill="#64748b" font-family="Arial, sans-serif" font-size="16">Level progress and order access</text>
    <rect x="874" y="230" width="351" height="498" rx="18" fill="#ffffff" stroke="#e5e7eb"/>
    <text x="914" y="274" fill="#111827" font-family="Arial, sans-serif" font-size="24" font-weight="800">Task Detail</text>
    <rect x="914" y="318" width="253" height="20" rx="10" fill="#e5e7eb"/>
    <rect x="914" y="360" width="191" height="20" rx="10" fill="#e5e7eb"/>
    <rect x="914" y="420" width="260" height="92" rx="16" fill="#f8fafc" stroke="#e5e7eb"/>
    <text x="940" y="456" fill="#111827" font-family="Arial, sans-serif" font-size="18" font-weight="800">1-2 hours</text>
    <text x="940" y="486" fill="#64748b" font-family="Arial, sans-serif" font-size="15">Template video edit</text>
    <rect x="914" y="550" width="260" height="92" rx="16" fill="#f8fafc" stroke="#e5e7eb"/>
    <text x="940" y="586" fill="#111827" font-family="Arial, sans-serif" font-size="18" font-weight="800">Quality review</text>
    <text x="940" y="616" fill="#64748b" font-family="Arial, sans-serif" font-size="15">Submit and improve</text>
  </g>
</svg>
