<svg xmlns="http://www.w3.org/2000/svg" width="1200" height="900" viewBox="0 0 1200 900" role="img" aria-label="Static AI editing">
  <defs>
    <linearGradient id="bg" x1="0" y1="0" x2="1" y2="1"><stop offset="0" stop-color="#09111e"/><stop offset="1" stop-color="#132033"/></linearGradient>
    <linearGradient id="accent" x1="0" y1="0" x2="1" y2="1"><stop offset="0" stop-color="#31d67b"/><stop offset="1" stop-color="#a3ffcf"/></linearGradient>
    <filter id="glow" x="-40%" y="-40%" width="180%" height="180%"><feGaussianBlur stdDeviation="15" result="b"/><feMerge><feMergeNode in="b"/><feMergeNode in="SourceGraphic"/></feMerge></filter>
    <filter id="shadow" x="-20%" y="-20%" width="140%" height="140%"><feDropShadow dx="0" dy="22" stdDeviation="22" flood-color="#000" flood-opacity=".36"/></filter>
  </defs>
  <rect width="1200" height="900" fill="url(#bg)"/>
  <circle cx="965" cy="138" r="210" fill="#a3ffcf" opacity=".11" filter="url(#glow)"/>
  <circle cx="160" cy="770" r="260" fill="#31d67b" opacity=".10" filter="url(#glow)"/>
  <g opacity=".22" stroke="#7f93aa" stroke-width="2">
    <path d="M90 160H1110M90 740H1110M180 90V810M1020 90V810"/>
    <path d="M120 230h180l60-60h210M650 730h210l72-72h150"/>
  </g>
  <rect x="112" y="110" width="976" height="680" rx="42" fill="#0e1725" stroke="#233148" stroke-width="3" filter="url(#shadow)"/>
  <rect x="112" y="110" width="976" height="70" rx="42" fill="#121e2e"/>
  <circle cx="162" cy="145" r="10" fill="#ff5e74"/><circle cx="194" cy="145" r="10" fill="#ffb35c"/><circle cx="226" cy="145" r="10" fill="#2ee783"/>
  <text x="600" y="151" text-anchor="middle" fill="#8aa0b6" font-family="Arial, sans-serif" font-size="18" font-weight="700">HOUR AI ORDER WORKSPACE</text>
  <g transform="translate(180 245)">
    <rect x="0" y="0" width="840" height="420" rx="28" fill="#eef7ff"/>
    <rect x="50" y="54" width="330" height="290" rx="24" fill="#d8e7f5"/>
    <rect x="460" y="54" width="330" height="290" rx="24" fill="#b8f8e5"/>
    <path d="M90 300l85-94 70 62 56-50 42 82" stroke="#7d91aa" stroke-width="18" fill="none" stroke-linecap="round" stroke-linejoin="round"/>
    <path d="M500 296l80-98 72 62 72-86 55 122" stroke="url(#accent)" stroke-width="20" fill="none" stroke-linecap="round" stroke-linejoin="round"/>
    <path d="M420 55v290" stroke="#172236" stroke-width="5" opacity=".35"/>
    <rect x="280" y="370" width="280" height="22" rx="11" fill="url(#accent)" filter="url(#glow)"/>
  </g>
</svg>